# xmcd
#
# Track frame offsets:
#	150
#	14385
#	25998
#	40911
#	54450
#	69196
#	84050
#	97241
#	109943
#	125802
#	138504
#	152194
#	169671
#	185013
#
# Disc length: 2621 seconds
#
# Revision: 1
# Processed by: cddbd v1.5.1PL0 Copyright (c) Steve Scherf et al.
# Submitted via: CDex 1.50Beta5
#
DISCID=bd0a3b0e
DTITLE=Various Artist - オールディーズ「メモリーオブ50`s」#6
DYEAR=1900
DGENRE=
TTITLE0=ナット・キング・コール/アイ・ジャスト・キャント・シー・フォー・ルッキン
TTITLE1=ドリス・デイ/アイ・ゴット・ザ・サン・イン・ザ・モーニング
TTITLE2=ビリー・ホリディ/ラヴァーマン
TTITLE3=リナ・ホーン/ザ・レディ・イズ・ア・トランプ
TTITLE4=ダイナ・ショア/マイ・ロマンス
TTITLE5=エラ・フィッツジェラルド/マイ・ワン・アンド・オンリー
TTITLE6=サラ・ヴォーン/ミーン・トゥー・ミー
TTITLE7=ビリー・ホリディ/ノー・モアー
TTITLE8=ペリー・コモ/恋のとりこ
TTITLE9=レイ・チャールズ/ロッキン・チェアー・ブルース
TTITLE10=ナット・キング・コール/ルート66
TTITLE11=グレン・ミラー楽団/スターダスト
TTITLE12=リナ・ホーン/ストーミー・ウェザー
TTITLE13=カウント・ペイシー楽団/ワンダフル・シング
EXTD=
EXTT0=
EXTT1=
EXTT2=
EXTT3=
EXTT4=
EXTT5=
EXTT6=
EXTT7=
EXTT8=
EXTT9=
EXTT10=
EXTT11=
EXTT12=
EXTT13=
PLAYORDER=
